<?xml version="1.0" encoding="UTF-8" standalone="no"?> <svg xmlns="http://www.w3.org/2000/svg" width="146" height="146" viewBox="0 0 146 146"><title>001-business</title><rect x="0.5" y="0.5" width="145" height="145" fill="none"/><path d="M93.9,47V17.4a4.93,4.93,0,0,0-5-4.8H30.13a4.93,4.93,0,0,0-5,4.8V127.8a4.93,4.93,0,0,0,5,4.8H88.86a4.93,4.93,0,0,0,5-4.8v-32" fill="#fff"/><path d="M86.71,95.4v16a0.82,0.82,0,0,1-.84.8H35.53a0.82,0.82,0,0,1-.84-0.8V29.8a0.82,0.82,0,0,1,.84-0.8H85.87a0.82,0.82,0,0,1,.84.8v16H59.86a2.46,2.46,0,0,0-2.52,2.4V93a2.46,2.46,0,0,0,2.52,2.4H86.71Z" fill="#a8cbeb"/><circle cx="59.5" cy="122.2" r="2.4" fill="#515f76"/><line x1="52.7" y1="21.8" x2="67.9" y2="21.8" fill="none" stroke="#515f76" stroke-linecap="round" stroke-miterlimit="10" stroke-width="2.4"/><path d="M85.87,29H35.53c-0.46,0-1.53.36-1.53,0.8V33H87V29.8A1.14,1.14,0,0,0,85.87,29Z" fill="#85bee1"/><line x1="123.5" y1="105.8" x2="123.5" y2="111.4" fill="none" stroke="#515f76" stroke-linecap="round" stroke-miterlimit="10" stroke-width="2.4"/><line x1="126.3" y1="108.6" x2="120.7" y2="108.6" fill="none" stroke="#515f76" stroke-linecap="round" stroke-miterlimit="10" stroke-width="2.4"/><line x1="79.3" y1="1.4" x2="82.5" y2="4.6" fill="none" stroke="#ea9080" stroke-linecap="round" stroke-miterlimit="10" stroke-width="1.6"/><line x1="82.5" y1="1.4" x2="79.3" y2="4.6" fill="none" stroke="#ea9080" stroke-linecap="round" stroke-miterlimit="10" stroke-width="1.6"/><circle cx="17.1" cy="143" r="1.6" fill="#b8b9ba"/><circle cx="31.9" cy="142.6" r="2" fill="none" stroke="#b8b9ba" stroke-linecap="round" stroke-miterlimit="10" stroke-width="1.6"/><circle cx="99.5" cy="6.2" r="1.6" fill="#b8b9ba"/><path d="M13.52,124.35l2.19-1.15a0.16,0.16,0,0,1,.23.17l-0.42,2.43,1.77,1.72a0.16,0.16,0,0,1-.09.27l-2.44.36-1.09,2.21a0.16,0.16,0,0,1-.29,0l-1.09-2.21-2.44-.36a0.16,0.16,0,0,1-.09-0.27l1.77-1.72-0.42-2.43a0.16,0.16,0,0,1,.23-0.17Z" fill="#a8cbeb"/><circle cx="103.9" cy="19.4" r="2" fill="none" stroke="#b8b9ba" stroke-linecap="round" stroke-miterlimit="10" stroke-width="1.6"/><circle cx="134.7" cy="101.4" r="1.6" fill="#b8b9ba"/><line x1="68" y1="86" x2="80" y2="86" fill="none" stroke="#343f43" stroke-linecap="round" stroke-miterlimit="10" stroke-width="2"/><path d="M59.9,96.2a2.4,2.4,0,0,1-2.4-2.4V51.4H55.1a2.4,2.4,0,0,0-2.4,2.4V98.6a2.4,2.4,0,0,0,2.4,2.4H94.3V96.2H59.9Z" fill="#c3c7cd"/><path d="M86.3,96.2H59.9a2.4,2.4,0,0,1-2.4-2.4V51.4H55.1a2.4,2.4,0,0,0-2.4,2.4V98.6a2.4,2.4,0,0,0,2.4,2.4H86.3l-0.8-4.8h0.8Z" fill="#85bee1"/><rect x="57.5" y="56.2" width="72" height="12.8" fill="#fff"/><path d="M129.5,49v7.2h-72V49a2.4,2.4,0,0,1,2.4-2.4h67.2A2.4,2.4,0,0,1,129.5,49Z" fill="#ea9080"/><path d="M129.5,69V93.8a2.4,2.4,0,0,1-2.4,2.4H59.9a2.4,2.4,0,0,1-2.4-2.4V69h72Z" fill="#ea9080"/><line x1="82.25" y1="76.19" x2="88.25" y2="76.19" fill="none" stroke="#515f76" stroke-linecap="round" stroke-miterlimit="10" stroke-width="2.4"/><line x1="97.25" y1="76.19" x2="104.25" y2="76.19" fill="none" stroke="#515f76" stroke-linecap="round" stroke-miterlimit="10" stroke-width="2.4"/><line x1="112.25" y1="76.19" x2="119.25" y2="76.19" fill="none" stroke="#515f76" stroke-linecap="round" stroke-miterlimit="10" stroke-width="2.4"/><path d="M85.5,96.2v15.2a0.82,0.82,0,0,1-.84.8H34.34a0.82,0.82,0,0,1-.84-0.8V29.8a0.82,0.82,0,0,1,.84-0.8H84.66a0.82,0.82,0,0,1,.84.8V46.6" fill="none" stroke="#515f76" stroke-miterlimit="10" stroke-width="2.4"/><line x1="68.25" y1="76.19" x2="74.25" y2="76.19" fill="none" stroke="#515f76" stroke-linecap="round" stroke-miterlimit="10" stroke-width="2.4"/><line x1="68" y1="84" x2="81" y2="84" fill="none" stroke="#515f76" stroke-linecap="round" stroke-miterlimit="10" stroke-width="2"/><path d="M95.1,47.4V17.8A5,5,0,0,0,89.89,13H29.11a5,5,0,0,0-5.21,4.8V128.2a5,5,0,0,0,5.21,4.8H89.89a5,5,0,0,0,5.21-4.8v-32" fill="none" stroke="#515f76" stroke-miterlimit="10" stroke-width="2.4"/><path d="M61,93.8V69H57V93.8c0,1.33,1.57,2.2,2.9,2.2h4C62.57,96,61,95.13,61,93.8Z" fill="#eeb8a9"/><path d="M60,53.8c0-1.33,1.31-2.07,2.63-2.07L129,50.13V49c0-1.33-.57-3-1.9-3H59.9A3.44,3.44,0,0,0,57,49v7h3V53.8Z" fill="#eeb8a9"/><rect x="57.5" y="46.6" width="72" height="49.6" rx="2.4" ry="2.4" fill="none" stroke="#515f76" stroke-miterlimit="10" stroke-width="2.4"/></svg>