<svg xmlns="http://www.w3.org/2000/svg" width="85" height="82" viewBox="0 0 85 82">
  <g id="Group_4129" data-name="Group 4129" transform="translate(-764 -2370)">
    <path id="Path_2943" data-name="Path 2943" d="M24.75,2.867S-7.212,8.907,1.507,35.447,65.634,41.976,68.9,16.359,24.75,2.867,24.75,2.867Z" transform="translate(764 2399.871) rotate(-22)" fill="#edf2ff"/>
    <g id="surface1" transform="translate(782 2386.414)">
      <path id="Path_2945" data-name="Path 2945" d="M65.313,41.766a31.553,31.553,0,0,1-7.557,11.773,39.556,39.556,0,0,1-14.769,8.751,4.518,4.518,0,0,1-1.435.253H41.5l.016-18.513L41.551,0a4.013,4.013,0,0,1,2.666,1.064l.041.038c4.754,4.633,10.317,6.978,17.507,7.379a6.629,6.629,0,0,1,6.242,6.494c.01.707.028,1.342.056,1.944v.048C68.2,24.315,68.376,33.458,65.313,41.766Zm0,0" transform="translate(-14.867 -0.001)" fill="#3b6bdd"/>
      <path id="Path_2922" data-name="Path 2922" d="M50.946,41.766a31.553,31.553,0,0,1-7.557,11.773,39.556,39.556,0,0,1-14.769,8.751,4.518,4.518,0,0,1-1.435.253H27.13a4.586,4.586,0,0,1-.881-.087,4.757,4.757,0,0,1-.606-.165,39.554,39.554,0,0,1-14.787-8.746A31.494,31.494,0,0,1,3.3,41.774C.249,33.491.423,24.365.563,17.032l0-.113c.028-.606.046-1.242.056-1.944A6.629,6.629,0,0,1,6.863,8.482c7.191-.4,12.753-2.747,17.506-7.379l.042-.038a4.006,4.006,0,0,1,5.439,0l.041.038C34.644,5.736,40.207,8.081,47.4,8.482a6.629,6.629,0,0,1,6.242,6.494c.01.707.028,1.342.056,1.944v.048C53.836,24.314,54.009,33.458,50.946,41.766Zm0,0" transform="translate(-0.5 0)" fill="none" stroke="#50597b" stroke-width="3"/>
      <path id="Path_2926" data-name="Path 2926" d="M169.11,215.112l-7.02,7.021-1.517,1.517a1.837,1.837,0,0,1-2.6,0l-3.261-3.263a1.835,1.835,0,1,1,2.595-2.595l1.965,1.965,7.24-7.24a1.835,1.835,0,0,1,2.595,2.595Zm0,0" transform="translate(-135.406 -186.086)" fill="#ffb72e"/>
    </g>
    <rect id="Rectangle_2661" data-name="Rectangle 2661" width="85" height="82" transform="translate(764 2370)" fill="#fff" opacity="0"/>
  </g>
</svg>
